HIERARCHY
ROOT Hips
{
	OFFSET -32.860001 56.121803 44.745396
	CHANNELS 6 Xposition Yposition Zposition Zrotation Xrotation Yrotation
	JOINT Chest
	{
		OFFSET -0.637402 0.831600 5.390099
		CHANNELS 6 Xposition Yposition Zposition Zrotation Xrotation Yrotation
		JOINT Chest2
		{
			OFFSET 0.000000 0.000000 4.429901
			CHANNELS 6 Xposition Yposition Zposition Zrotation Xrotation Yrotation
			JOINT Neck
			{
				OFFSET 0.000000 0.000000 10.301395
				CHANNELS 6 Xposition Yposition Zposition Zrotation Xrotation Yrotation
				JOINT Head
				{
					OFFSET 0.000000 0.000000 2.173897
					CHANNELS 6 Xposition Yposition Zposition Zrotation Xrotation Yrotation
					End Site
					{
						OFFSET 0.000000 0.000000 8.298004
					}
				}
			}
			JOINT LeftCollar
			{
				OFFSET 2.142401 -0.572701 5.717800
				CHANNELS 6 Xposition Yposition Zposition Zrotation Xrotation Yrotation
				JOINT LeftShoulder
				{
					OFFSET 5.674000 0.000000 0.000000
					CHANNELS 6 Xposition Yposition Zposition Zrotation Xrotation Yrotation
					JOINT LeftElbow
					{
						OFFSET 0.000000 0.000000 -12.238701
						CHANNELS 6 Xposition Yposition Zposition Zrotation Xrotation Yrotation
						JOINT LeftWrist
						{
							OFFSET 0.000000 0.000000 -10.253700
							CHANNELS 6 Xposition Yposition Zposition Zrotation Xrotation Yrotation
							End Site
							{
								OFFSET 0.000000 0.000000 -2.173901
							}
						}
					}
				}
			}
			JOINT RightCollar
			{
				OFFSET -2.882599 -1.580101 6.695801
				CHANNELS 6 Xposition Yposition Zposition Zrotation Xrotation Yrotation
				JOINT RightShoulder
				{
					OFFSET -4.235600 0.000000 0.000000
					CHANNELS 6 Xposition Yposition Zposition Zrotation Xrotation Yrotation
					JOINT RightElbow
					{
						OFFSET 0.000000 0.000000 -10.709900
						CHANNELS 6 Xposition Yposition Zposition Zrotation Xrotation Yrotation
						JOINT RightWrist
						{
							OFFSET 0.000000 0.000000 -11.716801
							CHANNELS 6 Xposition Yposition Zposition Zrotation Xrotation Yrotation
							End Site
							{
								OFFSET 0.000000 0.000000 -2.173901
							}
						}
					}
				}
			}
		}
	}
	JOINT LeftHip
	{
		OFFSET 2.279499 0.210400 -2.475502
		CHANNELS 6 Xposition Yposition Zposition Zrotation Xrotation Yrotation
		JOINT LeftKnee
		{
			OFFSET 0.000000 -0.000004 -20.742800
			CHANNELS 6 Xposition Yposition Zposition Zrotation Xrotation Yrotation
			JOINT LeftAnkle
			{
				OFFSET 0.000000 0.000000 -16.666000
				CHANNELS 6 Xposition Yposition Zposition Zrotation Xrotation Yrotation
				End Site
				{
					OFFSET 0.000000 -8.310898 0.000000
				}
			}
		}
	}
	JOINT RightHip
	{
		OFFSET -1.961899 0.232300 -2.727402
		CHANNELS 6 Xposition Yposition Zposition Zrotation Xrotation Yrotation
		JOINT RightKnee
		{
			OFFSET 0.000000 -0.000004 -20.526800
			CHANNELS 6 Xposition Yposition Zposition Zrotation Xrotation Yrotation
			JOINT RightAnkle
			{
				OFFSET 0.000000 0.000000 -16.867300
				CHANNELS 6 Xposition Yposition Zposition Zrotation Xrotation Yrotation
				End Site
				{
					OFFSET 0.000000 -7.186401 0.000000
				}
			}
		}
	}
}
MOTION
Frames: 5
Frame Time: 0.041667
59.204514 3.162998 43.420296 118.910697 -20.614756 -7.433536 -0.637403 0.831598 5.390093 -2.483261 -1.150951 -3.366586 0.000000 -0.000002 4.429899 0.473849 2.230166 0.130753 0.000007 -0.000010 10.301398 322.994865 24.682318 18.991519 -0.000001 0.000001 2.173890 -357.968329 4.119124 -8.904356 2.142401 -0.572700 5.717802 -1.882131 -2.318419 -28.603833 5.673996 0.000003 -0.000011 132.883584 204.870991 62.397084 0.000002 0.000000 -12.238708 -299.780800 -377.680856 -337.029510 -0.000004 0.000006 -10.253696 243.324123 6.253643 -30.875078 -2.882598 -1.580093 6.695799 -5.809352 -11.112492 30.529149 -4.235604 -0.000015 -0.000003 27.949996 -35.298906 100.165639 -0.000006 -0.000002 -10.709906 -29.595568 -33.144415 -29.157179 -0.000010 -0.000000 -11.716809 83.680377 13.583191 58.538826 2.279503 0.210395 -2.475493 -21.733056 20.687695 20.355495 0.000001 -0.000002 -20.742802 -55.320926 18.694045 42.469645 -0.000002 -0.000002 -16.666000 62.844871 12.387224 38.057005 -1.961896 0.232300 -2.727406 -385.936451 -12.839049 13.992785 -0.000000 -0.000006 -20.526796 364.474686 55.128414 -9.430108 -0.000001 0.000004 -16.867296 -24.433841 15.045348 -7.508734
59.227516 3.162712 43.438095 119.858495 -21.152216 -7.260246 -0.637402 0.831597 5.390104 -2.645219 -1.298539 -3.077854 -0.000000 0.000003 4.429893 0.817954 2.142533 0.119732 0.000005 -0.000003 10.301397 323.663704 23.992940 18.527416 -0.000003 0.000003 2.173912 -358.124741 4.245051 -8.876056 2.142398 -0.572700 5.717803 -1.626763 -2.672850 -28.847270 5.674000 0.000015 -0.000006 132.640539 205.461612 62.650511 0.000004 -0.000004 -12.238708 -299.266323 -377.660694 -336.666554 -0.000001 0.000002 -10.253694 242.887128 5.623101 -29.783310 -2.882603 -1.580095 6.695796 -5.759061 -10.626582 30.490658 -4.235603 -0.000010 -0.000003 27.615744 -34.502537 100.497730 0.000015 -0.000004 -10.709900 -31.250134 -33.009792 -29.632503 -0.000004 -0.000001 -11.716789 84.442523 13.824084 57.218998 2.279504 0.210393 -2.475497 -22.743627 21.508146 20.503389 0.000000 -0.000004 -20.742798 -55.745385 17.490602 41.928031 -0.000002 -0.000002 -16.666006 63.532541 12.581883 38.435653 -1.961896 0.232295 -2.727405 -384.826300 -11.740561 14.476045 0.000005 -0.000009 -20.526798 363.223887 54.713128 -9.522482 -0.000001 -0.000001 -16.867296 -25.151564 15.278710 -7.704001
59.242416 3.158504 43.459995 120.900017 -21.537019 -7.076293 -0.637401 0.831599 5.390097 -2.485541 -1.570784 -2.731927 0.000001 0.000007 4.429895 0.874568 2.272710 0.139898 0.000008 0.000010 10.301387 323.979887 23.153428 18.163676 -0.000001 0.000003 2.173896 -357.911830 4.317542 -9.073500 2.142400 -0.572699 5.717798 -1.704270 -3.037475 -29.051578 5.673998 -0.000001 -0.000002 132.585064 205.937566 62.661481 -0.000001 0.000006 -12.238690 -298.725208 -377.502998 -336.333951 -0.000002 0.000004 -10.253713 242.474502 4.668469 -28.653675 -2.882599 -1.580092 6.695792 -5.765442 -10.810172 30.644241 -4.235606 -0.000002 -0.000002 27.185577 -34.454292 100.374329 -0.000006 -0.000001 -10.709896 -31.724777 -33.095436 -29.984667 -0.000003 0.000006 -11.716800 84.665625 13.746329 56.999800 2.279503 0.210394 -2.475500 -23.834848 22.114457 20.608539 0.000000 0.000000 -20.742794 -56.021731 16.456265 41.513480 -0.000001 0.000004 -16.666008 64.042750 12.707683 38.661159 -1.961891 0.232294 -2.727400 -384.188524 -10.960710 14.772528 0.000001 -0.000010 -20.526806 362.576795 54.333912 -9.748809 -0.000002 0.000004 -16.867306 -25.886521 15.508351 -7.868586
59.250816 3.156506 43.482197 121.889862 -21.867149 -6.958400 -0.637407 0.831597 5.390095 -2.454656 -1.813292 -2.283217 0.000002 0.000003 4.429902 1.217634 2.247989 0.209995 -0.000000 -0.000006 10.301393 324.180039 22.414871 17.693484 -0.000003 -0.000000 2.173899 -357.693646 4.420810 -9.207412 2.142397 -0.572698 5.717791 -1.904452 -3.292352 -29.401912 5.673997 0.000010 -0.000015 132.609735 206.292408 62.740069 0.000004 0.000006 -12.238702 -298.046178 -377.333172 -335.965694 0.000004 0.000000 -10.253708 242.194956 4.226458 -26.687648 -2.882603 -1.580101 6.695791 -5.963892 -10.533402 30.455294 -4.235605 -0.000008 -0.000005 26.991058 -34.783575 100.774687 0.000006 -0.000004 -10.709904 -32.040810 -33.077568 -30.416813 -0.000010 0.000005 -11.716811 85.042877 13.754387 56.794792 2.279498 0.210396 -2.475500 -24.655672 22.540833 20.794260 0.000006 -0.000009 -20.742802 -55.970832 16.233987 41.170321 -0.000000 0.000005 -16.665998 63.988190 12.697590 38.594161 -1.961898 0.232297 -2.727408 -383.534246 -10.273591 15.029205 0.000003 0.000001 -20.526800 361.464976 53.934797 -9.512823 -0.000001 0.000007 -16.867298 -26.496807 15.811200 -7.922095
59.249908 3.157398 43.509491 122.913502 -22.208343 -6.744795 -0.637401 0.831596 5.390095 -1.846048 -1.985480 -1.864872 0.000001 -0.000013 4.429904 0.869822 2.269283 0.126252 -0.000004 -0.000003 10.301386 324.412593 21.618647 17.302049 0.000000 -0.000000 2.173909 -357.433498 4.342275 -9.384862 2.142395 -0.572706 5.717800 -1.828246 -3.072288 -29.314786 5.673999 0.000003 -0.000006 132.326883 206.774756 62.060636 0.000003 0.000000 -12.238690 -297.399714 -377.080674 -335.757784 0.000001 0.000004 -10.253701 241.759081 3.063527 -25.456668 -2.882609 -1.580097 6.695791 -7.327902 -10.091233 30.299638 -4.235608 0.000010 -0.000002 27.927409 -35.867751 101.354236 0.000007 -0.000001 -10.709900 -32.373775 -32.983936 -30.528616 -0.000006 -0.000005 -11.716792 85.570181 13.545051 56.881843 2.279508 0.210401 -2.475498 -25.194577 22.978372 20.809028 0.000000 -0.000008 -20.742794 -56.171022 16.171081 40.921087 -0.000002 0.000001 -16.666004 63.833172 12.706467 38.616985 -1.961895 0.232294 -2.727407 -382.980810 -9.574960 15.173328 0.000001 -0.000002 -20.526794 360.800891 53.539807 -9.565023 -0.000001 -0.000000 -16.867302 -27.186100 16.032105 -8.089693
